<svg width="520" height="600" viewBox="0 0 520 600" fill="none" xmlns="http://www.w3.org/2000/svg">
<path d="M0 165.2V434.698C0 445.559 5.7 455.608 15 461.09L245 595.889C254.3 601.37 265.7 601.37 275 595.889L505 461.09C514.3 455.608 520 445.559 520 434.698V165.2C520 154.339 514.3 144.29 505 138.809L275 4.11098C265.7 -1.37033 254.3 -1.37033 245 4.11098L15 138.809C5.7 144.29 0 154.339 0 165.2Z" fill="url(#paint0_linear_831_12973)"/>
<path d="M31 183.37V416.63C31 427.491 36.7 437.54 46 443.021L245 559.651C254.3 565.133 265.7 565.133 275 559.651L474 443.021C483.3 437.54 489 427.491 489 416.63V183.37C489 172.509 483.3 162.46 474 156.978L275 40.4498C265.7 34.9685 254.3 34.9685 245 40.4498L46 156.978C36.7 162.46 31 172.509 31 183.37Z" fill="url(#paint1_linear_831_12973)"/>
<path d="M520 220.927H0V393.08H520V220.927Z" fill="url(#paint2_linear_831_12973)"/>
<path d="M69.1992 359.076V248.537H90.3992V359.076H69.1992ZM139.799 359.076L99.9992 307.41H84.5992L131.899 248.537H156.199L113.499 301.523L112.899 290.966L165.599 359.076H139.799Z" fill="white"/>
<path d="M177.799 359.076V248.537H198.999V359.076H177.799ZM195.999 359.076V340.196H242.999V359.076H195.999Z" fill="white"/>
<path d="M309.398 361.919C299.498 361.919 290.998 360.193 283.998 356.742C276.998 353.291 271.298 348.621 266.798 342.937C262.398 337.253 259.098 331.061 256.998 324.463C254.898 317.865 253.898 311.369 253.898 305.177V301.827C253.898 294.925 254.998 288.226 257.098 281.526C259.198 274.827 262.498 268.838 266.898 263.357C271.298 257.875 276.998 253.511 283.898 250.262C290.798 247.014 298.998 245.39 308.398 245.39C318.198 245.39 326.798 247.217 334.198 250.871C341.598 254.526 347.398 259.601 351.798 265.996C356.198 272.492 358.798 280.004 359.698 288.733H338.198C337.498 283.658 335.798 279.395 333.098 276.045C330.398 272.594 326.898 269.955 322.698 268.127C318.498 266.3 313.698 265.387 308.498 265.387C303.198 265.387 298.498 266.3 294.298 268.229C290.098 270.158 286.598 272.797 283.898 276.248C281.098 279.699 278.998 283.759 277.598 288.327C276.198 292.996 275.398 298.072 275.398 303.654C275.398 309.136 276.098 314.109 277.598 318.779C278.998 323.448 281.198 327.508 284.098 330.959C286.998 334.411 290.498 337.151 294.798 339.08C298.998 341.008 303.898 341.922 309.498 341.922C317.698 341.922 324.498 339.892 330.098 335.832C335.698 331.771 339.098 325.986 340.198 318.677H361.698C360.698 326.595 358.098 333.802 353.798 340.298C349.498 346.896 343.698 352.073 336.198 356.031C328.598 359.99 319.698 361.919 309.398 361.919Z" fill="white"/>
<path d="M379.5 359.076V247.826H400.7V359.178H379.5V359.076ZM397.7 325.173V306.496H418.9C423.1 306.496 426.6 305.684 429.6 303.959C432.5 302.233 434.8 299.899 436.4 296.853C438 293.808 438.8 290.357 438.8 286.601C438.8 282.541 438 278.988 436.4 276.045C434.8 273 432.5 270.665 429.6 269.041C426.7 267.417 423.1 266.503 418.9 266.503H397.7V247.928H417.1C426.3 247.928 434 249.45 440.4 252.495C446.8 255.541 451.7 259.804 455.1 265.488C458.5 271.071 460.2 277.77 460.2 285.586V288.022C460.2 295.635 458.5 302.233 455.1 307.816C451.7 313.5 446.8 317.764 440.4 320.809C434 323.854 426.2 325.376 417.1 325.376H397.7V325.173Z" fill="white"/>
<path d="M233.2 431.653L232.2 428.202C232.2 428.202 214.9 425.055 191.6 426.781C168.3 428.506 144.9 436.728 144.9 436.728C144.9 436.728 192.9 424.446 233.2 431.653ZM285.1 455.507L286.9 455.405C286.9 455.405 276.7 442.819 257.1 436.627C268.1 441.195 277.7 447.183 285.1 455.507ZM233.9 433.582C233.9 433.582 220.2 432.668 196.8 440.078C173 447.691 159.5 458.349 159.5 458.349C159.5 458.349 195 438.251 235.1 437.033L233.9 433.582ZM312.1 520.775C312.1 520.775 314.3 495.5 275.1 489.613C270.1 488.902 263.9 488.293 257.5 488.293C226.1 488.699 225 451.548 248.6 449.62C258.4 448.808 270.1 454.187 281.6 459.567C281.6 460.988 281.6 462.308 282.5 463.526C283.4 464.744 287 465.962 288.2 466.673C289.3 467.383 293 469.718 295.3 472.661C295.8 471.748 299.9 469.007 299.9 469.007C299.9 469.007 298.9 469.007 296.7 468.195C294.4 467.383 291.7 464.744 291.7 464.541C291.6 464.439 291.6 464.135 292.1 464.033C292.5 463.729 291.6 462.612 291.2 462.206C290.8 461.8 288.1 457.131 288 457.029C287.9 456.928 287.9 456.826 287.7 456.725C287.1 456.522 284.5 457.029 284.5 457.029C284.5 457.029 280.5 454.999 279.1 450.736C279.1 451.447 278.4 452.36 279.1 454.086C277 453.172 275.2 451.65 273.8 447.894C273 450.026 273.8 451.447 273.8 451.447C273.8 451.447 268.9 450.026 268.1 445.458C267.2 447.488 268.1 448.808 268.1 448.808C268.1 448.808 260.1 444.544 246.7 444.443C237.8 443.631 235.9 427.694 236.7 424.954C236.7 424.954 223.8 418.051 198.4 415.006C173 411.961 152.2 414.499 152.2 414.499C152.2 414.499 197.1 412.265 233.1 427.085C234.3 432.668 238 441.905 240 446.371C234.3 450.33 227.9 454.086 226.9 467.383C225.9 480.68 237.2 492.353 251.1 492.759C264.3 493.47 273.5 493.572 284.6 499.459C295.2 505.448 303.9 523.516 304.7 539.757C305.6 527.677 301.2 501.692 280.3 493.775C309.5 498.85 312.1 520.775 312.1 520.775ZM288 460.785C288.3 460.278 289.2 462.308 289.8 463.12C289.8 463.323 289.9 463.424 289.5 463.323C289.5 463.12 289.4 463.12 289.4 463.12C289.4 463.12 288.5 462.511 288.2 462.105C288 461.699 287.9 460.988 288 460.785Z" fill="white"/>
<path fill-rule="evenodd" clip-rule="evenodd" d="M166.5 159.313C166.5 165.81 167 172.205 167.9 178.599L169.9 192.303C168.1 192.607 166.4 192.81 164.5 192.81C162.6 192.81 160.9 192.607 159.1 192.303L161.1 178.599C162 172.205 162.5 165.81 162.5 159.313V130.486C163.2 130.486 163.9 130.384 164.6 130.384C165.3 130.384 166 130.384 166.7 130.486V159.313H166.5ZM145.8 186.517L153.8 170.682C154.4 169.464 154.7 168.144 154.7 166.825V132.008C142.5 136.17 133.6 147.843 133.6 161.648C133.7 171.799 138.5 180.833 145.8 186.517ZM174.2 166.825C174.2 168.144 174.5 169.464 175.1 170.682L183.1 186.517C190.5 180.833 195.2 171.799 195.2 161.648C195.2 147.843 186.4 136.17 174.1 132.008V166.825H174.2Z" fill="white"/>
<path d="M385 151.498V150.787H388.4V151.498H385ZM386.3 155.253V151.295H387V155.253H386.3ZM389.1 155.253V150.889H389.8V155.253H389.1ZM391.2 155.253L389.3 150.889H390.1L391.4 154.137L392.7 150.889H393.5L391.6 155.253H391.2ZM392.9 155.253V150.889H393.6V155.253H392.9Z" fill="white"/>
<path d="M230.5 142.565C219 142.565 210.6 150.888 210.6 162.46V162.866C210.6 174.539 218.8 182.761 230.5 182.761C242.2 182.761 250.3 174.539 250.3 162.765V162.359C250.3 150.685 242.1 142.565 230.5 142.565ZM218.7 162.46C218.7 154.137 223.2 148.96 230.5 148.96C237.8 148.96 242.2 154.238 242.2 162.46V162.866C242.2 171.088 237.6 176.468 230.6 176.468C223.6 176.468 218.7 170.885 218.7 162.968V162.46Z" fill="white"/>
<path d="M286.399 141.042C285.099 140.636 284.099 140.535 282.499 140.535C276.299 140.535 272.699 144.087 272.699 150.381V153.527H261.899V150.076C261.899 146.93 263.799 146.219 265.299 146.219C266.499 146.219 267.499 146.524 268.099 146.727C268.199 146.727 268.299 146.727 268.399 146.727C268.499 146.625 268.499 146.625 268.499 146.524V141.448C268.499 141.347 268.399 141.245 268.299 141.144C266.999 140.738 265.999 140.636 264.499 140.636C258.199 140.636 254.699 144.087 254.699 150.482V182.05C254.699 182.254 254.799 182.355 254.999 182.355H261.499C261.699 182.355 261.799 182.254 261.799 182.05V158.907H272.599V181.847C272.599 182.051 272.699 182.152 272.899 182.152H279.399C279.599 182.152 279.699 182.051 279.699 181.847V158.907H285.799C285.999 158.907 286.099 158.806 286.099 158.603V153.73C286.099 153.527 285.999 153.426 285.799 153.426H279.699V150.076C279.699 146.93 281.599 146.219 283.099 146.219C284.399 146.219 285.399 146.524 285.999 146.727C286.099 146.727 286.199 146.727 286.299 146.727C286.399 146.727 286.399 146.625 286.399 146.524V141.448C286.599 141.245 286.599 141.144 286.399 141.042Z" fill="white"/>
<path d="M305.7 158.704C299.1 157.791 297.9 156.268 297.9 153.324C297.9 150.381 300.3 148.554 304.3 148.554C308.7 148.554 310.8 150.178 311.5 154.035C311.5 154.137 311.6 154.238 311.8 154.238H318.4C318.5 154.238 318.6 154.238 318.6 154.137C318.7 154.035 318.7 154.035 318.7 153.934C317.9 146.422 313 142.463 304.3 142.463C296.2 142.463 290.5 147.133 290.5 153.832C290.5 160.531 294.4 164.084 304.4 165.404C311.1 166.52 312.2 168.043 312.2 170.986C312.2 174.336 309.4 176.569 305.2 176.569C298.7 176.569 297.3 173.321 296.9 169.768C296.9 169.667 296.8 169.464 296.6 169.464H289.7C289.6 169.464 289.5 169.464 289.5 169.565C289.5 169.667 289.4 169.667 289.4 169.768C289.8 175.554 292.9 182.558 305.2 182.558C313.6 182.558 319.7 177.381 319.7 170.377C319.8 162.358 314.4 159.922 305.7 158.704Z" fill="white"/>
<path d="M347.599 156.268C345.199 154.035 341.899 152.817 338.099 152.817C329.599 152.817 323.699 158.907 323.699 167.637V168.043C323.699 176.772 329.599 182.66 338.299 182.66C345.799 182.66 350.699 179.208 351.599 173.22C351.599 173.118 351.599 173.017 351.499 173.017C351.399 172.915 351.399 172.915 351.299 172.915H344.999C344.899 172.915 344.699 173.017 344.699 173.118C344.199 175.859 342.099 177.178 338.499 177.178C333.999 177.178 331.299 174.438 330.999 169.464H351.399C351.599 169.464 351.699 169.362 351.699 169.159V167.231C351.699 162.561 350.299 158.806 347.599 156.268ZM331.199 164.592C331.899 160.531 334.399 158.197 338.099 158.197C342.099 158.197 344.299 160.328 344.599 164.592H331.199Z" fill="white"/>
<path d="M384.099 171.19C383.999 171.088 383.999 171.088 383.899 171.088H377.899C377.699 171.088 377.599 171.19 377.599 171.393C377.299 174.844 374.699 177.178 371.099 177.178C366.299 177.178 363.599 173.829 363.599 168.144V167.738C363.599 162.257 366.499 158.806 370.999 158.806C374.599 158.806 376.699 160.531 377.199 163.881C377.199 163.983 377.299 164.186 377.499 164.186H383.799C383.899 164.186 383.999 164.186 383.999 164.084C384.099 163.983 384.099 163.983 384.099 163.881C383.399 156.979 378.599 153.02 370.899 153.02C362.399 153.02 356.299 159.313 356.299 167.941V168.347C356.299 177.077 362.199 182.964 370.899 182.964C378.499 182.964 383.799 178.498 384.299 171.596C384.199 171.393 384.199 171.291 384.099 171.19Z" fill="white"/>
<defs>
<linearGradient id="paint0_linear_831_12973" x1="259.999" y1="597.252" x2="259.999" y2="84.2309" gradientUnits="userSpaceOnUse">
<stop stop-color="#324B5C"/>
<stop offset="1" stop-color="#5C809B"/>
</linearGradient>
<linearGradient id="paint1_linear_831_12973" x1="259.999" y1="679.122" x2="259.999" y2="235.189" gradientUnits="userSpaceOnUse">
<stop stop-color="#5C809B"/>
<stop offset="1" stop-color="#324B5C"/>
</linearGradient>
<linearGradient id="paint2_linear_831_12973" x1="260" y1="183.977" x2="260" y2="467.054" gradientUnits="userSpaceOnUse">
<stop stop-color="#5C809B"/>
<stop offset="1" stop-color="#324B5C"/>
</linearGradient>
</defs>
</svg>
