<svg width="520" height="600" viewBox="0 0 520 600" fill="none" xmlns="http://www.w3.org/2000/svg">
<path d="M0 165.2V434.698C0 445.559 5.7 455.608 15 461.09L245 595.889C254.3 601.37 265.7 601.37 275 595.889L505 461.09C514.3 455.608 520 445.559 520 434.698V165.2C520 154.339 514.3 144.29 505 138.809L275 4.11098C265.7 -1.37033 254.3 -1.37033 245 4.11098L15 138.809C5.7 144.29 0 154.339 0 165.2Z" fill="url(#paint0_linear_831_13155)"/>
<path d="M31 183.37V416.63C31 427.491 36.7 437.54 46 443.021L245 559.651C254.3 565.133 265.7 565.133 275 559.651L474 443.021C483.3 437.54 489 427.491 489 416.63V183.37C489 172.509 483.3 162.46 474 156.978L275 40.4498C265.7 34.9685 254.3 34.9685 245 40.4498L46 156.978C36.7 162.46 31 172.509 31 183.37Z" fill="url(#paint1_linear_831_13155)"/>
<path d="M520 220.927H0V393.08H520V220.927Z" fill="url(#paint2_linear_831_13155)"/>
<path d="M263.4 527.982H257C256.3 527.982 255.7 527.373 255.7 526.662V519.76C253.7 518.237 252.5 515.903 252.5 513.365C252.5 509 256 505.448 260.3 505.448C264.6 505.448 268.1 509 268.1 513.365C268.1 515.903 266.9 518.339 264.9 519.76V526.662C264.8 527.373 264.2 527.982 263.4 527.982ZM258.3 525.241H262.1V518.948C262.1 518.44 262.4 518.034 262.8 517.73C264.4 516.816 265.4 515.091 265.4 513.264C265.4 510.422 263.1 508.087 260.3 508.087C257.5 508.087 255.2 510.422 255.2 513.264C255.2 515.091 256.2 516.816 257.8 517.73C258.2 517.933 258.5 518.44 258.5 518.948V525.241H258.3Z" fill="white"/>
<path d="M288.8 445.255C287.7 445.255 286.7 444.95 285.7 444.443C282.7 442.717 281.7 438.758 283.4 435.713C285.1 432.668 289 431.653 292 433.379C295 435.104 296 439.063 294.3 442.108C293.1 444.037 291 445.255 288.8 445.255ZM288.9 435.206C287.7 435.206 286.4 435.815 285.8 437.033C285.3 437.845 285.2 438.86 285.4 439.773C285.6 440.687 286.2 441.499 287.1 442.007C288.8 443.022 291 442.413 292 440.687C293 438.961 292.4 436.728 290.7 435.713C290.1 435.409 289.5 435.206 288.9 435.206Z" fill="white"/>
<path d="M223.699 466.368C222.599 466.368 221.499 466.063 220.599 465.556C217.599 463.83 216.599 459.872 218.299 456.826C219.099 455.405 220.499 454.289 222.099 453.883C223.699 453.477 225.399 453.68 226.899 454.492C228.299 455.304 229.399 456.725 229.799 458.349C230.199 459.973 229.999 461.699 229.199 463.221C228.399 464.642 226.999 465.759 225.399 466.165C224.799 466.266 224.199 466.368 223.699 466.368ZM223.699 456.319C223.399 456.319 223.099 456.319 222.799 456.42C221.899 456.623 221.099 457.232 220.599 458.146C219.599 459.872 220.199 462.105 221.899 463.12C222.699 463.627 223.699 463.729 224.599 463.526C225.499 463.323 226.299 462.714 226.799 461.8C227.299 460.988 227.399 459.973 227.199 459.059C226.999 458.146 226.399 457.334 225.499 456.826C224.899 456.522 224.299 456.319 223.699 456.319Z" fill="white"/>
<path d="M260.4 543.208C259.3 543.208 258.3 542.903 257.3 542.396C254.3 540.67 253.3 536.711 255 533.666C256.7 530.621 260.6 529.606 263.6 531.331C266.6 533.057 267.6 537.016 265.9 540.061C264.7 542.091 262.6 543.208 260.4 543.208ZM260.4 533.159C259.2 533.159 257.9 533.768 257.3 534.986C256.3 536.711 256.9 538.944 258.6 539.959C260.3 540.974 262.5 540.365 263.5 538.64C264.5 536.914 263.9 534.681 262.2 533.666C261.6 533.362 261 533.159 260.4 533.159Z" fill="white"/>
<path d="M263.399 460.379C260.199 458.45 256.099 459.668 254.199 462.917C252.399 466.165 253.499 470.326 256.699 472.255C257.799 472.864 258.899 473.169 259.999 473.169C262.299 473.169 264.599 471.951 265.799 469.717C267.699 466.469 266.599 462.206 263.399 460.379Z" fill="white"/>
<path d="M260.399 497.835C270.599 497.835 278.999 506.26 278.999 516.715C278.999 516.004 279.599 515.395 280.299 515.395C280.999 515.395 281.599 516.004 281.599 516.715C281.599 504.839 272.099 495.196 260.399 495.196C248.699 495.196 239.199 504.839 239.199 516.715C239.199 526.358 245.499 534.58 254.199 537.32C254.099 536.407 254.299 535.493 254.599 534.58C247.199 532.144 241.899 525.038 241.899 516.715C241.799 506.26 250.199 497.835 260.399 497.835Z" fill="white"/>
<path d="M280.299 515.293C279.599 515.293 278.999 515.903 278.999 516.613C278.999 524.937 273.699 532.042 266.299 534.478C266.599 535.29 266.799 536.305 266.699 537.219C275.399 534.478 281.699 526.256 281.699 516.613C281.599 515.903 280.999 515.293 280.299 515.293Z" fill="white"/>
<path d="M305.399 485.35C294.999 474.286 281.399 467.485 266.699 465.861C266.799 466.774 266.599 467.688 266.299 468.5C280.499 470.022 293.499 476.519 303.499 487.177C304.699 488.496 305.399 490.12 305.299 491.948C305.299 493.775 304.499 495.399 303.299 496.617C302.799 497.124 302.699 498.038 303.299 498.545C303.599 498.85 303.899 498.951 304.299 498.951C304.599 498.951 304.999 498.85 305.199 498.545C306.999 496.82 307.999 494.485 308.099 491.948C307.999 489.511 307.099 487.177 305.399 485.35Z" fill="white"/>
<path d="M303.2 498.647C302.7 498.139 302.7 497.226 303.2 496.718C302 497.936 300.4 498.546 298.7 498.546C296.9 498.546 295.2 497.835 293.9 496.515C284.9 486.974 272.8 481.696 259.8 481.696C247.3 481.696 235.5 486.568 226.7 495.5C224.1 498.139 219.9 498.038 217.4 495.5C216.2 494.181 215.5 492.557 215.5 490.73C215.5 488.902 216.2 487.278 217.5 485.959C217.2 486.263 216.9 486.365 216.6 486.365C216.3 486.365 215.9 486.263 215.7 485.959C215.2 485.451 215.2 484.538 215.7 484.03C213.9 485.756 213 488.192 213 490.628C213 493.166 213.9 495.5 215.7 497.327C219.3 500.982 225.2 501.083 228.8 497.429C237.2 489.004 248.3 484.335 260.1 484.335C272.4 484.335 283.8 489.308 292.2 498.342C294 500.271 296.4 501.286 298.9 501.286C301.3 501.286 303.6 500.373 305.3 498.647C305 498.85 304.7 499.053 304.4 499.053C303.8 499.053 303.5 498.85 303.2 498.647Z" fill="white"/>
<path d="M253.3 465.861C239.1 467.383 225.9 473.677 215.6 484.03C215.1 484.538 215.1 485.451 215.6 485.959C215.9 486.263 216.2 486.365 216.5 486.365C216.8 486.365 217.2 486.263 217.4 485.959C227.3 476.011 240 469.921 253.6 468.601C253.4 467.688 253.3 466.774 253.3 465.861Z" fill="white"/>
<path d="M323.999 462.917C315.999 453.375 306.099 445.864 294.899 440.89C294.799 441.296 294.599 441.702 294.399 442.108C294.199 442.514 293.899 442.92 293.599 443.225C304.599 448.097 314.299 455.405 322.099 464.744C324.499 467.586 324.099 471.748 321.299 474.184C320.099 475.199 318.599 475.808 316.999 475.808C315.099 475.808 313.199 474.996 311.999 473.473C299.299 458.247 280.099 449.518 259.299 449.518C248.599 449.518 238.199 451.954 228.799 456.319C229.299 456.928 229.599 457.638 229.799 458.45C229.799 458.552 229.799 458.653 229.899 458.755C238.899 454.492 248.899 452.157 259.299 452.157C279.299 452.157 297.699 460.582 309.999 475.199C311.799 477.33 314.299 478.549 317.099 478.549C319.299 478.549 321.399 477.736 323.099 476.315C326.799 472.763 327.299 466.875 323.999 462.917Z" fill="white"/>
<path d="M217.999 462.51C214.399 465.15 210.999 468.195 207.999 471.544C205.499 474.285 201.399 474.488 198.699 471.95C195.999 469.413 195.799 465.251 198.299 462.51C213.499 445.66 235.699 435.916 259.199 435.916C267.299 435.916 275.199 437.032 282.599 439.164C282.499 438.251 282.699 437.337 282.999 436.423C275.399 434.292 267.299 433.074 259.099 433.074C234.799 433.074 211.899 443.123 196.199 460.582C192.799 464.439 192.999 470.326 196.799 473.879C200.599 477.33 206.399 477.127 209.899 473.27C212.799 470.022 215.999 467.18 219.499 464.642C218.899 464.134 218.299 463.424 217.999 462.51Z" fill="white"/>
<path d="M81.4 361.919C71.6 361.919 63 360.193 55.8 356.742C48.6 353.291 42.6 348.621 37.9 342.836C33.2 337.05 29.7 330.858 27.4 324.26C25.1 317.662 24 311.267 24 305.075V301.726C24 294.925 25.2 288.225 27.6 281.526C30 274.827 33.6 268.736 38.4 263.255C43.2 257.774 49.2 253.409 56.4 250.161C63.6 246.913 71.9 245.289 81.5 245.289C91 245.289 99.4 246.913 106.6 250.161C113.8 253.409 119.8 257.774 124.7 263.255C129.5 268.736 133.1 274.827 135.5 281.526C137.9 288.225 139.1 295.026 139.1 301.726V305.075C139.1 311.267 137.9 317.662 135.6 324.26C133.3 330.858 129.7 337.05 125 342.836C120.3 348.621 114.3 353.189 107.1 356.742C99.8 360.193 91.3 361.919 81.4 361.919ZM81.4 342.023C87 342.023 92 341.008 96.5 338.978C101 336.948 104.8 334.208 107.9 330.553C111 327.001 113.4 322.839 115.1 318.271C116.7 313.703 117.6 308.831 117.6 303.654C117.6 298.173 116.8 293.199 115.1 288.53C113.4 283.861 111 279.801 107.9 276.349C104.8 272.898 101 270.157 96.6 268.229C92.2 266.3 87.2 265.387 81.6 265.387C76.1 265.387 71.2 266.3 66.7 268.229C62.2 270.157 58.4 272.898 55.3 276.349C52.2 279.801 49.8 283.861 48.1 288.53C46.5 293.199 45.6 298.173 45.6 303.654C45.6 308.831 46.4 313.703 48.1 318.271C49.7 322.839 52.1 327.001 55.3 330.553C58.4 334.106 62.2 336.948 66.7 338.978C71 341.008 76 342.023 81.4 342.023Z" fill="white"/>
<path d="M196.301 361.918C186.801 361.918 178.601 360.395 172.001 357.249C165.301 354.102 160.301 349.839 156.901 344.256C153.501 338.775 151.801 332.481 151.801 325.579H172.501C172.501 328.523 173.301 331.365 174.901 334.105C176.501 336.846 179.101 339.079 182.601 340.805C186.101 342.53 190.701 343.343 196.401 343.343C201.701 343.343 206.001 342.632 209.501 341.109C213.001 339.587 215.501 337.557 217.301 335.121C219.001 332.684 219.901 329.842 219.901 326.696C219.901 322.838 218.301 319.793 215.001 317.357C211.701 315.022 206.601 313.5 199.601 312.891L190.101 311.977C179.701 311.064 171.301 307.714 165.101 302.03C158.901 296.345 155.801 288.732 155.801 279.394C155.801 272.289 157.401 266.198 160.701 261.123C164.001 256.048 168.601 252.089 174.501 249.348C180.401 246.608 187.401 245.187 195.301 245.187C203.601 245.187 210.701 246.608 216.701 249.551C222.701 252.495 227.301 256.555 230.601 261.935C233.801 267.213 235.401 273.507 235.401 280.612H214.701C214.701 277.668 214.001 274.928 212.601 272.39C211.201 269.852 209.101 267.721 206.201 266.097C203.301 264.473 199.701 263.661 195.301 263.661C191.101 263.661 187.701 264.371 184.901 265.894C182.201 267.315 180.101 269.243 178.701 271.68C177.301 274.014 176.601 276.653 176.601 279.495C176.601 282.947 177.801 285.89 180.301 288.529C182.801 291.067 186.701 292.59 192.101 292.996L201.501 293.909C209.401 294.518 216.201 296.142 222.001 298.883C227.801 301.624 232.401 305.278 235.701 309.947C239.001 314.616 240.601 320.199 240.601 326.797C240.601 333.801 238.801 339.891 235.201 345.17C231.601 350.448 226.501 354.61 219.901 357.553C213.201 360.497 205.401 361.918 196.301 361.918Z" fill="white"/>
<path d="M277.6 359.076L250 248.536H272L294.5 344.662L288.7 341.211H303.6L297 344.662L314.8 252.698H333L310.9 358.974H277.6V359.076ZM342.8 359.076L318.8 252.799H337.7L358.1 344.764L351.7 341.312H366.3L360.6 344.764L380.3 248.638H401.2L376.4 359.177H342.8V359.076Z" fill="white"/>
<path d="M418.301 359.076V247.826H439.501V359.178H418.301V359.076ZM436.501 325.173V306.496H457.701C461.901 306.496 465.401 305.684 468.401 303.959C471.301 302.233 473.601 299.899 475.201 296.853C476.801 293.808 477.601 290.357 477.601 286.601C477.601 282.541 476.801 278.988 475.201 276.045C473.601 273 471.301 270.665 468.401 269.041C465.501 267.417 461.901 266.503 457.701 266.503H436.501V247.826H455.901C465.101 247.826 472.801 249.349 479.201 252.394C485.601 255.439 490.501 259.702 493.901 265.387C497.301 270.969 499.001 277.669 499.001 285.485V287.921C499.001 295.534 497.301 302.132 493.901 307.715C490.501 313.399 485.601 317.662 479.201 320.707C472.801 323.752 465.001 325.275 455.901 325.275H436.501V325.173Z" fill="white"/>
<path fill-rule="evenodd" clip-rule="evenodd" d="M166.5 159.313C166.5 165.81 167 172.205 167.9 178.599L169.9 192.303C168.1 192.607 166.4 192.81 164.5 192.81C162.6 192.81 160.9 192.607 159.1 192.303L161.1 178.599C162 172.205 162.5 165.81 162.5 159.313V130.486C163.2 130.486 163.9 130.384 164.6 130.384C165.3 130.384 166 130.384 166.7 130.486V159.313H166.5ZM145.8 186.517L153.8 170.682C154.4 169.464 154.7 168.144 154.7 166.825V132.008C142.5 136.17 133.6 147.843 133.6 161.648C133.7 171.799 138.5 180.833 145.8 186.517ZM174.2 166.825C174.2 168.144 174.5 169.464 175.1 170.682L183.1 186.517C190.5 180.833 195.2 171.799 195.2 161.648C195.2 147.843 186.4 136.17 174.1 132.008V166.825H174.2Z" fill="white"/>
<path d="M385 151.498V150.787H388.4V151.498H385ZM386.3 155.253V151.295H387V155.253H386.3ZM389.1 155.253V150.889H389.8V155.253H389.1ZM391.2 155.253L389.3 150.889H390.1L391.4 154.137L392.7 150.889H393.5L391.6 155.253H391.2ZM392.9 155.253V150.889H393.6V155.253H392.9Z" fill="white"/>
<path d="M230.5 142.565C219 142.565 210.6 150.888 210.6 162.46V162.866C210.6 174.539 218.8 182.761 230.5 182.761C242.2 182.761 250.3 174.539 250.3 162.765V162.359C250.3 150.685 242.1 142.565 230.5 142.565ZM218.7 162.46C218.7 154.137 223.2 148.96 230.5 148.96C237.8 148.96 242.2 154.238 242.2 162.46V162.866C242.2 171.088 237.6 176.468 230.6 176.468C223.6 176.468 218.7 170.885 218.7 162.968V162.46Z" fill="white"/>
<path d="M286.399 141.042C285.099 140.636 284.099 140.535 282.499 140.535C276.299 140.535 272.699 144.087 272.699 150.381V153.527H261.899V150.076C261.899 146.93 263.799 146.219 265.299 146.219C266.499 146.219 267.499 146.524 268.099 146.727C268.199 146.727 268.299 146.727 268.399 146.727C268.499 146.625 268.499 146.625 268.499 146.524V141.448C268.499 141.347 268.399 141.245 268.299 141.144C266.999 140.738 265.999 140.636 264.499 140.636C258.199 140.636 254.699 144.087 254.699 150.482V182.05C254.699 182.254 254.799 182.355 254.999 182.355H261.499C261.699 182.355 261.799 182.254 261.799 182.05V158.907H272.599V181.847C272.599 182.051 272.699 182.152 272.899 182.152H279.399C279.599 182.152 279.699 182.051 279.699 181.847V158.907H285.799C285.999 158.907 286.099 158.806 286.099 158.603V153.73C286.099 153.527 285.999 153.426 285.799 153.426H279.699V150.076C279.699 146.93 281.599 146.219 283.099 146.219C284.399 146.219 285.399 146.524 285.999 146.727C286.099 146.727 286.199 146.727 286.299 146.727C286.399 146.727 286.399 146.625 286.399 146.524V141.448C286.599 141.245 286.599 141.144 286.399 141.042Z" fill="white"/>
<path d="M305.7 158.704C299.1 157.791 297.9 156.268 297.9 153.324C297.9 150.381 300.3 148.554 304.3 148.554C308.7 148.554 310.8 150.178 311.5 154.035C311.5 154.137 311.6 154.238 311.8 154.238H318.4C318.5 154.238 318.6 154.238 318.6 154.137C318.7 154.035 318.7 154.035 318.7 153.934C317.9 146.422 313 142.463 304.3 142.463C296.2 142.463 290.5 147.133 290.5 153.832C290.5 160.531 294.4 164.084 304.4 165.404C311.1 166.52 312.2 168.043 312.2 170.986C312.2 174.336 309.4 176.569 305.2 176.569C298.7 176.569 297.3 173.321 296.9 169.768C296.9 169.667 296.8 169.464 296.6 169.464H289.7C289.6 169.464 289.5 169.464 289.5 169.565C289.5 169.667 289.4 169.667 289.4 169.768C289.8 175.554 292.9 182.558 305.2 182.558C313.6 182.558 319.7 177.381 319.7 170.377C319.8 162.358 314.4 159.922 305.7 158.704Z" fill="white"/>
<path d="M347.599 156.268C345.199 154.035 341.899 152.817 338.099 152.817C329.599 152.817 323.699 158.907 323.699 167.637V168.043C323.699 176.772 329.599 182.66 338.299 182.66C345.799 182.66 350.699 179.208 351.599 173.22C351.599 173.118 351.599 173.017 351.499 173.017C351.399 172.915 351.399 172.915 351.299 172.915H344.999C344.899 172.915 344.699 173.017 344.699 173.118C344.199 175.859 342.099 177.178 338.499 177.178C333.999 177.178 331.299 174.438 330.999 169.464H351.399C351.599 169.464 351.699 169.362 351.699 169.159V167.231C351.699 162.561 350.299 158.806 347.599 156.268ZM331.199 164.592C331.899 160.531 334.399 158.197 338.099 158.197C342.099 158.197 344.299 160.328 344.599 164.592H331.199Z" fill="white"/>
<path d="M384.099 171.19C383.999 171.088 383.999 171.088 383.899 171.088H377.899C377.699 171.088 377.599 171.19 377.599 171.393C377.299 174.844 374.699 177.178 371.099 177.178C366.299 177.178 363.599 173.829 363.599 168.144V167.738C363.599 162.257 366.499 158.806 370.999 158.806C374.599 158.806 376.699 160.531 377.199 163.881C377.199 163.983 377.299 164.186 377.499 164.186H383.799C383.899 164.186 383.999 164.186 383.999 164.084C384.099 163.983 384.099 163.983 384.099 163.881C383.399 156.979 378.599 153.02 370.899 153.02C362.399 153.02 356.299 159.313 356.299 167.941V168.347C356.299 177.077 362.199 182.964 370.899 182.964C378.499 182.964 383.799 178.498 384.299 171.596C384.199 171.393 384.199 171.291 384.099 171.19Z" fill="white"/>
<defs>
<linearGradient id="paint0_linear_831_13155" x1="259.999" y1="597.252" x2="259.999" y2="84.2309" gradientUnits="userSpaceOnUse">
<stop stop-color="#1B3861"/>
<stop offset="1" stop-color="#016DCE"/>
</linearGradient>
<linearGradient id="paint1_linear_831_13155" x1="259.999" y1="679.122" x2="259.999" y2="235.189" gradientUnits="userSpaceOnUse">
<stop stop-color="#0070D4"/>
<stop offset="1" stop-color="#1B3861"/>
</linearGradient>
<linearGradient id="paint2_linear_831_13155" x1="260" y1="183.977" x2="260" y2="467.054" gradientUnits="userSpaceOnUse">
<stop stop-color="#0070D4"/>
<stop offset="1" stop-color="#1B3861"/>
</linearGradient>
</defs>
</svg>
